<?xml version="1.0" standalone="no"?>
<!DOCTYPE svg PUBLIC "-//W3C//DTD SVG 20010904//EN"
 "http://www.w3.org/TR/2001/REC-SVG-20010904/DTD/svg10.dtd">
<svg version="1.0" xmlns="http://www.w3.org/2000/svg"
 width="332.000000pt" height="332.000000pt" viewBox="0 0 332.000000 332.000000"
 preserveAspectRatio="xMidYMid meet">
<metadata>
Created by potrace 1.11, written by Peter Selinger 2001-2013
</metadata>
<g transform="translate(0.000000,332.000000) scale(0.100000,-0.100000)"
fill="#000000" stroke="none">
<path d="M1612 3159 c-10 -4 -35 -10 -53 -14 -68 -12 -187 -63 -238 -103 -86
-65 -176 -173 -230 -273 -57 -106 -91 -213 -108 -341 -3 -27 -9 -48 -13 -48
-4 0 -24 25 -44 55 -51 78 -63 92 -133 162 -107 106 -237 193 -291 193 -35 0
-166 -47 -216 -78 -89 -55 -161 -156 -191 -268 -32 -114 -35 -129 -35 -191 0
-78 16 -156 38 -181 16 -18 39 -26 68 -23 24 2 64 51 68 83 1 3 4 10 9 14 4 4
7 14 7 21 0 19 50 124 67 142 41 41 184 -55 283 -189 43 -59 94 -147 92 -160
0 -3 6 -12 13 -20 23 -25 72 -169 95 -280 18 -87 21 -121 15 -195 -16 -190 -9
-258 50 -525 5 -25 68 -185 74 -190 3 -3 15 -23 26 -45 26 -55 96 -155 107
-155 5 0 6 -4 3 -10 -3 -5 -2 -10 2 -10 5 0 14 -9 20 -20 12 -18 7 -22 -59
-55 -87 -44 -142 -100 -180 -182 -32 -72 -35 -112 -11 -151 40 -64 22 -62 424
-62 l366 0 26 24 c26 24 34 45 39 101 2 24 8 31 28 33 14 2 32 6 40 9 23 9 43
14 65 16 11 1 23 5 26 10 3 4 15 9 27 12 36 7 172 75 172 86 0 5 4 8 8 5 5 -3
21 6 37 20 15 13 32 24 37 24 5 0 6 5 3 10 -3 6 -1 10 6 10 16 0 129 118 129
135 0 8 5 15 10 15 11 0 87 115 108 163 11 26 15 27 80 27 61 0 72 3 96 26 50
51 30 182 -39 257 -14 15 -24 31 -22 35 11 17 21 158 21 297 1 157 5 191 38
315 21 83 124 299 163 344 14 16 25 32 25 35 0 3 17 24 38 46 38 41 172 141
172 129 0 -3 6 -1 14 5 7 6 20 9 29 5 16 -6 55 -82 96 -185 12 -31 33 -66 45
-76 21 -19 26 -19 62 -7 21 8 40 14 41 14 0 0 7 24 14 53 29 119 4 294 -61
423 -36 69 -95 134 -155 169 -53 31 -175 75 -209 75 -96 0 -345 -214 -438
-378 -17 -29 -34 -50 -38 -45 -5 4 -11 35 -14 68 -15 154 -46 262 -115 398
-56 111 -111 178 -216 265 -32 26 -152 93 -175 97 -3 1 -31 9 -63 18 -65 20
-145 27 -175 16z"/>
</g>
</svg>
